<svg xmlns="http://www.w3.org/2000/svg" xmlns:xlink="http://www.w3.org/1999/xlink" width="1618" height="1000" version="1.1" viewBox="-449 214 1618 1000"><g id="layer1"><g style="fill:#68d2e8;fill-opacity:1;stroke-linejoin:miter"><path d="M-449.001,212.758C-449.33014,212.758,-449.6458,212.88875,-449.87854,213.12148C-450.11127,213.3542,-450.242,213.66986,-450.242,213.999L-450.241,1214.0C-450.241,1214.6854,-449.6854,1215.241,-449.0,1215.241L1169.001,1215.242C1169.3301,1215.242,1169.6458,1215.1113,1169.8785,1214.8785C1170.1113,1214.6458,1170.242,1214.3301,1170.242,1214.001L1170.241,214.0C1170.241,213.31462,1169.6854,212.759,1169.0,212.759L-449.001,212.758 Z"/></g><g style="fill:#000;fill-opacity:.2;stroke-linejoin:miter"><path d="M828.427,1039.5111L824.44434,1054.5061Q811.8596,1074.6465,777.73016,1091.2025Q760.6654,1099.4805,738.21436,1106.8623Q730.3553,1111.1134,658.7425,1126.9917Q597.2594,1139.0574,526.0718,1144.747Q434.9645,1150.4641,413.83176,1149.6947Q374.5988,1150.1484,332.9398,1149.0082Q253.42358,1145.8207,188.05927,1137.176Q155.37712,1132.8538,126.232956,1127.1672Q109.449646,1125.1765,46.760983,1107.0378Q-59.67923,1069.6213,-41.64293,1029.2708Q-33.71532,1009.17957,-2.394455,992.2048Q13.265972,983.71735,34.774715,976.00903Q42.22044,971.5802,111.76654,954.8127Q227.34659,930.0584,392.14117,929.0051Q474.5385,929.5318,544.63214,935.98364Q629.5579,945.34467,642.85187,948.99445Q673.2849,954.4423,700.6419,961.3715Q763.91724,979.3763,769.5544,983.9121Q788.139,992.01,800.87524,1000.88696Q826.3478,1018.6408,828.427,1039.5111"/></g><g style="fill:#53eeff;fill-opacity:.84313726;stroke-linejoin:miter"><path d="M462.68878,434.54205L62.808563,465.9507L151.1938,975.8115L400.42676,1147.5189L653.0129,1034.6821L753.89734,508.65814L463.42395,434.7271"/></g><g style="fill:#feba9b;fill-opacity:1;stroke-linejoin:miter"><path d="M344.95004,1021.0642L344.95023,1021.0646Q336.19394,1025.6097,332.4044,1026.7258Q329.09836,1027.7239,328.4727,1027.7756Q327.1924,1028.0928,320.57526,1028.914Q318.76123,1029.3279,318.78522,1029.5062L318.52713,1029.7992Q318.36804,1030.1292,318.58154,1030.5635Q319.03012,1031.459,320.69028,1032.4426Q323.19,1033.9556,327.2767,1034.4808Q330.1345,1034.7839,334.05338,1034.2134Q337.8946,1033.6519,344.0591,1032.0306Q352.5837,1031.4268,355.485,1030.998Q360.0181,1030.2899,360.56934,1030.0234Q363.41513,1029.2628,364.6303,1027.8885L365.0922,1027.1534Q365.43628,1026.3752,365.40128,1025.4388Q365.27908,1022.1808,360.49246,1014.88745L344.95004,1021.0642 Z"/></g><g style="fill:#feba9b;fill-opacity:1;stroke-linejoin:miter"><path d="M340.33084,1015.97314L339.0826,1016.5508Q331.8071,1019.9751,327.12393,1021.3098Q325.73416,1021.7095,324.3623,1021.99524Q324.09576,1022.06116,322.80203,1022.28076Q321.42764,1022.55664,315.2064,1023.0925Q313.60254,1023.30396,313.2591,1023.4718Q311.06296,1024.4353,314.74973,1026.743Q317.08255,1027.9606,317.81696,1028.1204Q318.9888,1028.5206,320.31995,1028.7866Q322.54642,1029.2863,326.19894,1029.1464Q331.07773,1028.9117,339.308,1027.0283L352.40695,1025.7721L340.33084,1015.97314 Z"/></g><g style="fill:#feba9b;fill-opacity:1;stroke-linejoin:miter"><path d="M316.86447,994.6327L316.86447,994.6333L316.86447,994.6327L316.86447,994.6333 Z"/></g><g style="fill:#000;fill-opacity:.99607843;stroke-linejoin:miter"><path d="M365.44568,1032.7604L365.05865,1030.4102C363.26062,1019.41504,362.4847,1010.02124,362.53027,1002.22766C362.53635,1001.2052,362.45947,997.2185,362.77496,990.27356C363.65897,970.81555,364.16864,960.51526,364.1951,959.36096C364.32178,953.76636,364.2757,948.96655,364.04944,944.9479C363.98273,943.7678,363.70102,941.1627,363.04514,937.13794L359.43332,921.9839C359.22803,921.35754,358.78558,918.6028,358.12988,913.7173C357.107,906.0979,356.53485,896.1444,356.93634,883.8745C357.25974,873.9785,358.60187,866.30176,360.41605,860.82007L361.97064,855.6245C366.52316,848.85925,369.38412,843.42664,370.82935,839.4199C372.2563,835.4645,373.70132,828.9612,374.89154,819.80664C358.7916,781.4808,342.33484,779.14545,342.33484,779.14545C326.53168,776.9029,310.34503,810.6475,310.34503,810.6475C309.2211,826.89935,308.55685,837.89185,308.3528,843.62805L307.90002,854.96313C309.81973,880.2947,311.67587,899.3613,313.71478,912.1245C316.10867,927.10986,319.83832,939.3202,324.65668,948.7988C326.67413,971.6571,327.7972,986.9475,328.22726,994.65967C328.54855,1000.4149,328.4503,1007.43274,328.01474,1015.74365C327.91672,1017.6155,328.11887,1018.9918,328.40445,1019.8435C328.9122,1021.35815,329.76462,1022.1521,330.77042,1022.5846C331.82312,1023.0366,334.26254,1023.50964,338.24707,1023.681L340.88577,990.35864L337.86414,1025.8966C342.02798,1031.0339,345.74826,1033.6415,348.8513,1034.4816C351.53262,1035.2079,356.98407,1034.883,365.44568,1032.7604 Z"/></g><g style="fill:#000;fill-opacity:.99607843;stroke-linejoin:miter"><path d="M336.7243,885.3187L336.7243,885.31934L336.7243,885.3192L336.7243,885.3187 Z"/></g><g style="fill:#7d8b96;fill-opacity:.99607843;stroke-linejoin:miter"><path d="M354.99167,743.17426L354.99167,743.17426L354.99194,743.1746L354.99167,743.17426 Z"/></g><g style="fill:#953620;fill-opacity:1;stroke-linejoin:miter"><path d="M340.17316,663.4443L340.18732,663.32776Q340.5323,650.40515,340.904,648.3502Q341.16168,646.02637,341.61462,644.18994Q343.52368,637.61694,343.84006,635.28436Q344.55405,630.41565,344.5312,627.512Q344.48206,621.20306,343.76788,618.5975Q343.40155,616.8717,342.81677,615.3124L342.1687,613.81616Q341.45557,612.38,340.5102,611.1922Q338.5994,608.82074,336.00006,607.39075Q334.1411,606.0753,328.95798,605.17664Q325.41367,604.75446,321.28323,605.4926Q316.61917,606.3203,309.21835,608.98663Q306.57608,609.40485,305.31076,609.39087Q302.09708,610.0038,299.81207,605.0717Q297.48312,609.6636,297.38232,612.01373Q296.7827,615.7468,300.49808,624.50867L316.14392,647.2101L340.17316,663.4443 Z"/></g><g style="fill:#ffba9b;fill-opacity:.99607843;stroke-linejoin:miter"><path d="M342.53552,668.615L342.53485,668.61584L340.51788,659.28595L340.4508,655.6957Q336.49652,655.7873,334.18414,654.1968Q332.08197,652.6163,330.83972,649.4051Q329.91202,646.6227,329.91745,645.33405Q329.85977,644.501,329.886,643.6762Q330.2557,638.4159,330.08826,638.1411Q330.08276,636.8005,329.0966,635.01086Q326.19977,631.32117,323.7932,632.61145Q323.11377,632.84705,322.17102,634.3765Q321.7694,634.8367,319.9885,639.60986Q319.4875,640.7451,319.15613,640.44147Q318.6919,639.71967,318.52997,638.8024Q317.20135,632.16595,316.5714,629.81036Q315.32758,625.51447,314.90912,624.85376Q313.32104,620.6315,308.64716,618.25446Q301.3867,615.66296,298.0595,618.8467Q295.57208,627.2912,295.60782,629.93176Q295.41492,632.8539,297.58817,635.53485Q292.2004,644.7494,292.3671,646.76904Q292.0235,649.2507,297.05655,649.03705Q296.43344,652.72705,296.79822,653.6803Q297.04214,654.79266,298.88342,655.2361Q297.58792,655.5399,297.9924,657.1307Q298.41238,658.52185,300.1805,661.7048Q300.06567,665.5552,300.75705,667.25964Q301.57806,668.8382,302.4079,669.04895Q303.6693,669.8584,308.74942,669.6644L314.36313,667.3746L318.1266,671.3724L342.53552,668.615 Z"/></g><g style="fill:#000;fill-opacity:.99607843;stroke-linejoin:miter"><path d="M298.36386,668.8151L298.36343,668.8151L298.36386,668.8159L298.36343,668.8151 Z"/></g><g style="fill:#000;fill-opacity:1;stroke-linejoin:miter"><path d="M338.80902,807.11145L340.29327,809.42847Q352.15768,828.2356,358.36307,830.2357Q365.3166,833.22156,375.65646,829.5304Q376.0804,826.8561,376.47983,824.16565Q378.77206,809.43054,377.57248,798.23914Q377.48,796.13184,376.0873,788.6589Q369.90308,761.90607,369.93314,761.0064Q369.37973,758.5015,368.34225,750.8625Q367.08542,741.0346,366.85242,713.3066Q366.32184,704.30963,365.97043,702.8342Q365.51654,698.0602,362.97916,691.2069Q362.56866,689.5143,358.6593,683.2099Q354.58008,677.10205,345.03748,668.6628L341.0523,659.7968L314.45502,669.2565L315.65436,677.20447Q302.47137,701.6502,301.34534,713.6474Q299.31268,726.72174,300.02628,740.62256Q299.66608,740.9614,303.3806,784.73663Q304.27936,798.50226,304.2776,804.0004Q304.33356,816.1154,302.29922,821.43854Q312.3203,824.78357,318.51035,821.9973Q324.48978,820.00745,338.80902,807.11145 Z"/></g><g style="fill:#000;fill-opacity:.99607843;stroke-linejoin:miter"><path d="M336.957,1015.96326L336.9571,1015.96533L319.49667,1020.23425Q317.73526,1020.58765,316.06094,1020.9938Q315.21942,1021.2019,314.447,1021.4392Q310.25064,1022.5785,310.03165,1025.1666Q309.7426,1026.1431,310.9802,1029.7728L345.7086,1023.22534L336.957,1015.96326 Z"/></g><g style="fill:#000;fill-opacity:.99607843;stroke-linejoin:miter"><path d="M339.7369,1015.85693L339.06723,1016.44446Q334.17654,1020.7146,330.70044,1021.927Q328.7015,1022.739,326.47134,1023.256Q325.17374,1023.56116,323.77768,1023.81995Q314.06082,1025.4645,313.7095,1025.6691Q310.1264,1026.519,308.61746,1027.5815Q306.42154,1028.7346,307.10556,1031.8812Q308.2338,1034.7648,312.5294,1036.5745Q317.0685,1038.6371,327.7756,1037.2754Q328.66348,1037.1888,333.23465,1036.466L359.06607,1032.2749Q361.7546,1032.1243,363.04358,1031.8806Q365.79922,1031.3234,366.56998,1030.1685Q367.66327,1028.8942,367.28467,1025.7622Q367.2373,1023.963,364.8966,1016.2803L358.22696,1021.53076L339.7369,1015.85693 Z"/></g><g style="fill:#000;fill-opacity:.99607843;stroke-linejoin:miter"><path d="M325.90787,1020.23474L325.90833,1020.2357L325.90836,1020.2366L325.90787,1020.23474 Z"/></g><g style="fill:#feba9b;fill-opacity:1;stroke-linejoin:miter"><path d="M302.77008,805.4014L279.1006,814.46625L274.48038,825.85846L307.7473,813.27716L318.2858,799.3795L302.77008,805.4014 Z"/></g><g style="fill:#000;fill-opacity:1;stroke-linejoin:miter"><path d="M354.7662,718.5036L340.23462,734.29486L314.2417,821.3782L290.48087,812.3697C299.79642,762.7222,306.36032,731.7279,310.0693,719.35565C313.23083,708.8094,315.23462,703.2434,315.64178,702.36255C318.26096,696.69354,320.51328,692.6781,322.77472,690.3672C325.76398,687.3133,329.6988,685.88196,334.78723,686.2721L354.7662,718.5036 Z"/></g><g style="fill:#000;fill-opacity:.99607843;stroke-linejoin:miter"><path d="M305.88345,632.5604L305.59464,632.45966Q303.70078,631.75824,302.5389,631.7834Q302.2814,631.79205,302.03348,631.8333Q301.905,631.8382,301.30762,632.0176Q300.7145,632.21155,299.7009,632.74695Q301.43375,632.5058,302.4802,632.4836Q303.4946,632.4436,305.88345,632.5604 Z"/></g><g style="fill:#000;fill-opacity:.99607843;stroke-linejoin:miter"><path d="M305.46027,637.5308L305.46066,637.5311L305.46085,637.5315L305.46027,637.5308 Z"/></g><g style="fill:#fff;fill-opacity:.99607843;stroke-linejoin:miter"><path d="M304.9636,634.7816L304.9637,634.78253L301.52396,633.73926Q301.22684,634.37976,301.24338,634.7709Q301.2302,635.149,301.53424,636.0472L304.9636,634.7816 Z"/></g><g style="fill:#000;fill-opacity:.99607843;stroke-linejoin:miter"><path d="M301.5422,633.7152L302.50278,634.7728L301.60587,635.9866Q301.34833,635.5284,301.25577,635.2809Q301.17038,635.03375,301.16882,634.98663Q301.14963,634.88965,301.1467,634.79443Q301.14456,634.7,301.15823,634.6077Q301.15714,634.5608,301.2294,634.3341Q301.30844,634.1091,301.5422,633.7152 Z"/></g><g style="fill:#000;fill-opacity:.047058824;stroke-linejoin:miter"><path d="M463.9084,436.3663L399.5414,910.2008L647.02045,1037.5807L652.96643,1034.9246L752.758,514.59955L753.89026,508.0113L754.0697,506.96802L747.6898,505.41553L679.71533,488.87592L663.28644,484.87805L464.50845,436.51083L463.9084,436.3663 Z"/></g><g style="fill:#000;fill-opacity:.30588236;stroke-linejoin:miter"><path d="M464.21173,434.34467L59.306545,466.60733L353.86642,610.0202L751.82263,507.3305L464.86966,434.5116"/></g><g style="fill:#000;fill-opacity:.23529412;stroke-linejoin:miter"><path d="M754.406,506.4607L353.80164,610.4716L400.87402,1147.5576L401.52408,1147.4731L652.9144,1034.194L754.21136,507.47235"/></g><g style="fill:#000;fill-opacity:.18039216;stroke-linejoin:miter"><path d="M64.2875,468.57785L151.07857,975.0951L400.49344,1147.7117L400.95877,1147.3961L353.28827,609.6847L65.02766,468.9374"/></g><g style="fill:#000;fill-opacity:.15294118;stroke-linejoin:miter"><path d="M602.13525,1030.4315L603.7736,1039.7684L596.38464,1047.3644L581.374,1053.3339L560.14734,1057.7911L534.1105,1060.8507L504.66898,1062.6267L473.22867,1063.2339L441.19513,1062.7865L409.9742,1061.3988L380.97153,1059.1853L355.59277,1056.2604Q306.13376,1048.9963,305.91595,1037.3473Q306.269,1032.1293,316.41223,1027.9569Q334.00586,1021.1332,353.40753,1018.0055Q366.9577,1015.5142,386.42944,1013.5184L407.22266,1011.72205L430.05814,1010.335L454.17615,1009.44305L478.81714,1009.132L503.22134,1009.4878L526.62915,1010.5961L548.281,1012.5429L567.41724,1015.414L583.2781,1019.2953L595.104,1024.2725L602.13525,1030.4315"/></g><g style="fill:#000;fill-opacity:1;stroke-linejoin:miter"><path d="M596.0676,999.9374L595.52136,1007.76636Q591.71735,1031.4207,573.51074,1045.5631Q555.1784,1059.694,530.38995,1056.9529Q506.7356,1053.149,492.59314,1034.9426Q488.06177,1029.0574,485.13602,1022.1233L482.68024,1014.9961Q480.6602,1007.6411,480.65704,999.65076Q481.3367,975.131,497.65997,958.8889Q513.9831,942.6467,538.5056,942.08875Q563.02527,942.76843,579.26746,959.0917Q595.50964,975.4147,596.0676,999.9374"/></g><g style="fill:#000;fill-opacity:1;stroke-linejoin:miter"><path d="M465.54373,999.7272C465.57574,1000.405,465.6309,1001.0864,465.70953,1001.7709C467.60785,1018.27246,482.52402,1030.1105,499.02512,1028.2118C499.30817,1028.1793,499.5896,1028.1428,499.86972,1028.1027L499.86972,1028.1033Q499.47934,1024.7096,499.08878,1021.3165L499.08878,1021.31555C498.8092,1021.35803,498.52795,1021.3955,498.24475,1021.4282C485.49008,1022.8956,473.96075,1013.7451,472.49356,1000.9905C472.43265,1000.46155,472.39008,999.9348,472.3653,999.41077C471.79123,987.29675,480.70538,976.64526,492.9314,975.23865C493.21365,975.2064,493.4953,975.1791,493.77634,975.15686L493.77634,975.1575Q493.38602,971.76404,492.99542,968.3712L492.99542,968.36975C492.71448,968.3943,492.43298,968.4226,492.15106,968.45496C476.33374,970.2744,464.801,984.0547,465.54373,999.7272 Z"/></g><g style="fill:#000;fill-opacity:1;stroke-linejoin:miter"><path d="M389.33936,764.97614L389.33936,764.97675L389.33936,764.97614L389.33936,764.97675L389.33936,764.97614L389.33936,764.97675L389.33936,764.97614L389.33936,764.97675L389.33936,764.97614L389.33936,764.97675 M389.74313,771.2083L389.74313,771.2089L389.74313,771.2083L389.74313,771.2089L389.74313,771.2083L389.74313,771.2089L389.74313,771.2083L389.74313,771.2089L389.74313,771.2083 Z"/></g><g style="fill:#000;fill-opacity:1;stroke-linejoin:miter"><path d="M273.52322,702.68085L273.52322,702.681L273.52322,702.6811L273.52322,702.681L273.52322,702.68085L273.52322,702.681L273.52322,702.6811Q273.52322,702.681,273.52322,702.68085"/></g><g style="fill:#000;fill-opacity:1;stroke-linejoin:miter"><path d="M273.52322,702.68085L273.52322,702.681L273.52322,702.6811L273.52322,702.681L273.52322,702.68085L273.52322,702.681L273.52322,702.6811Q273.52322,702.681,273.52322,702.68085"/></g><g style="fill:#000;fill-opacity:1;stroke-linejoin:miter"><path d="M364.26865,1011.3634C362.6088,1011.10706,362.02673,1010.8447,360.7261,1009.7947C357.7363,1007.3452,357.30313,1003.66455,359.65747,1000.5665C360.5659,999.36414,361.63733,998.6173,363.25092,998.06946C364.17874,997.74133,364.97797,997.64514,367.9894,997.43005C371.93683,997.13904,372.44568,997.1726,374.10858,997.7993C375.10773,998.1887,377.00198,999.61804,377.04175,1000.01855C377.04837,1000.0852,378.4565,1000.0127,380.19174,999.84033L383.31168,999.5303L384.1565,998.3679C385.01645,997.18726,386.25488,996.25525,387.65323,995.74585C388.01035,995.60925,389.8007,995.3135,391.631,995.08093C394.65927,994.6959,395.43167,994.6698,397.3885,994.8628C398.61295,994.97705,400.2357,995.8772,401.1843,996.94556L401.8311,997.69006L405.03445,997.3717L408.23782,997.05334L408.5518,996.4829C409.4237,994.9136,410.67227,993.9136,412.5445,993.25574C413.63416,992.8611,414.26492,992.7649,417.54327,992.5231C419.59872,992.35266,421.4456,992.287,421.62073,992.3539C421.7975,992.43726,422.08774,992.47595,422.28796,992.45593C423.1389,992.37146,425.23022,993.5791,426.20383,994.729L426.62393,995.22656L429.86066,994.9049C432.8471,994.60803,433.09567,994.5668,433.15094,994.27466C433.29984,993.569,434.65714,992.13684,435.83206,991.41345C436.65985,990.92676,437.11862,990.7969,439.85495,990.35657C443.98282,989.67676,446.61212,989.68494,448.34836,990.37195C449.15396,990.6792,450.7031,991.85657,451.0798,992.4258C451.31647,992.7728,451.36652,992.76794,454.5198,992.4546L457.7232,992.1362L458.06564,991.51245C458.34958,990.97864,459.2695,989.8933,459.81366,989.4348C460.15588,989.1482,461.09717,988.6167,461.49094,988.51025C461.71964,988.4369,462.17508,988.27344,462.5172,988.1555C463.31314,987.8573,470.68253,987.24304,471.13788,987.41675C471.33133,987.49854,471.63995,987.55225,471.8235,987.53406C472.7745,987.43945,475.4626,989.2278,476.24258,990.4646C477.32602,992.2103,477.5747,994.713,476.85608,996.6376C476.52347,997.53,474.90732,999.4093,474.07956,999.89575C472.5024,1000.8109,472.32053,1000.8458,468.34128,1001.32544C465.12622,1001.69543,464.32208,1001.7416,463.63315,1001.5912C463.1678,1001.4857,462.68903,1001.4155,462.53888,1001.4304C462.322,1001.4519,461.50134,1001.1627,460.96765,1000.87866C460.36395,1000.568,459.2116,999.65454,458.82822,999.18713L458.36978,998.6428L455.16632,998.9613L451.96304,999.27966L451.7609,999.7883C451.4634,1000.52576,449.996,1002.03613,449.19333,1002.43604C447.42767,1003.319,447.11404,1003.38403,443.12646,1003.7803C438.9554,1004.1948,438.48163,1004.1743,436.7503,1003.53784C435.75296,1003.1653,434.1171,1001.9629,433.8788,1001.43054C433.74557,1001.10693,433.6438,1001.1001,430.5072,1001.41174L427.2872,1001.7318L427.03162,1002.21216C426.5806,1003.09924,425.57553,1004.1764,424.68597,1004.7197C422.987,1005.76465,422.36295,1005.92786,418.4422,1006.3175C414.52136,1006.70715,413.8774,1006.6699,412.00595,1005.9796C411.07858,1005.63367,409.60944,1004.5834,409.17606,1003.9525C408.97775,1003.6521,408.75916,1003.657,405.68433,1003.91187C402.47763,1004.1969,402.4109,1004.2035,402.34564,1004.56396C402.21677,1005.13257,400.8829,1006.6301,400.04178,1007.1516C398.54803,1008.0585,397.974,1008.21643,394.195,1008.6763C391.09842,1009.0514,390.36096,1009.09094,389.25165,1008.9486C387.40826,1008.7103,386.72113,1008.40796,385.21375,1007.14233L383.89142,1006.0438L380.83823,1006.34705L377.785,1006.6505L377.44257,1007.2743C377.1586,1007.8081,376.23874,1008.89343,375.69464,1009.35205C375.2739,1009.697,374.3444,1010.17676,373.4349,1010.52014C371.97314,1011.0696,365.92847,1011.61975,364.26865,1011.3634 Z M371.56857,1007.16724C372.28934,1006.9607,372.33798,1006.6022,371.6626,1006.07947C371.42587,1005.9009,371.06912,1005.3634,370.88922,1004.9094C370.59772,1004.1803,370.57785,1003.98,370.7201,1003.2075C370.8072,1002.7272,371.0529,1002.147,371.24814,1001.90845C372.23148,1000.78296,371.45758,1000.6238,367.24796,1001.16003C364.33652,1001.5337,363.94604,1001.6736,363.15805,1002.5608C362.79578,1002.98413,362.3044,1004.31335,362.35086,1004.7805C362.40723,1005.3479,363.06378,1006.52954,363.5424,1006.9369C364.5378,1007.79834,365.15338,1007.8888,368.19153,1007.6039C369.70984,1007.4531,371.2231,1007.2522,371.56857,1007.16724 Z M396.5282,1004.68713C397.18225,1004.48706,397.13736,1004.2052,396.3321,1003.3922C395.73187,1002.77783,395.6686,1002.64954,395.56415,1001.5984C395.4597,1000.54724,395.49646,1000.4088,395.96402,999.68835C396.24292,999.2731,396.46677,998.81274,396.4535,998.6792C396.41867,998.32886,394.9205,998.3429,391.77383,998.7229C389.443,999.0054,389.1961,999.0635,389.00906,999.3854C388.83533,999.6721,388.8453,999.77246,389.04202,999.8876C389.16714,999.9595,389.46887,1000.2832,389.70224,1000.59705C390.47742,1001.61536,390.42087,1003.9291,389.61472,1004.4641C389.15576,1004.76245,389.46072,1005.2883,390.10306,1005.3086C390.99893,1005.3375,395.9875,1004.8418,396.5282,1004.68713 Z M421.52948,1002.1185C421.97845,1001.88855,421.947,1001.57166,421.45502,1001.19934C420.8914,1000.78357,420.32477,999.82874,420.2601,999.1782C420.1938,998.51074,420.49298,997.6217,421.01395,996.9297C421.7719,995.9109,421.1848,995.7671,417.68112,996.1151C413.77698,996.5029,413.12952,996.76953,414.07327,997.61926C414.68192,998.14856,415.18683,998.99133,415.24323,999.5587C415.30127,1000.1426,414.86002,1001.46716,414.466,1001.9105C414.07196,1002.354,414.12018,1002.66956,414.6072,1002.8231C415.09262,1002.9602,421.03226,1002.37024,421.52948,1002.1185 Z M445.8133,999.7897C446.6359,999.58984,446.9216,999.073,446.34113,998.8273C445.84912,998.62354,445.3859,997.69226,445.28638,996.69104C445.17535,995.57336,445.28073,995.10803,445.80838,994.4828C446.1539,994.0609,446.1623,993.9758,445.934,993.71204C445.68887,993.4501,445.38528,993.44653,442.76074,993.6566C439.30057,993.9331,438.52466,994.0945,438.45264,994.55664C438.42084,994.7449,438.46912,994.8917,438.55255,994.8834C438.63593,994.8751,438.9511,995.16406,439.27286,995.5198C439.76468,996.0604,439.8563,996.3041,439.9491,997.2383C440.0469,998.22266,440.01346,998.39453,439.54422,999.09827C438.92804,1000.0188,438.9278,1000.3557,439.55508,1000.39465C440.3175,1000.43665,445.00574,999.9708,445.8133,999.7897 Z M471.5289,996.948C472.33344,996.39636,472.78925,995.72766,472.9801,994.76514C473.16574,993.921,473.1542,993.8042,472.81094,993.06335C472.39938,992.1439,471.71255,991.5045,470.85852,991.2186C470.16132,990.98474,465.78683,991.21716,464.2217,991.57495C463.16718,991.81445,463.122,992.03796,463.92224,992.8008C464.9061,993.714,465.0765,995.938,464.24506,996.89685C463.82098,997.37695,463.81903,997.86584,464.24768,997.94104C464.40283,997.9763,466.00623,997.83386,467.78964,997.63965C470.5076,997.3528,471.1183,997.22473,471.5289,996.948 Z"/></g><g style="fill:#000;fill-opacity:1;stroke-linejoin:miter"><path d="M329.6951,988.7584L347.54105,992.6803L365.38693,996.6018Q363.3293,1005.96533,361.27173,1015.32874Q343.42575,1011.4072,325.57983,1007.4857Q327.63745,998.12195,329.6951,988.7584"/></g><g style="fill:#000;fill-opacity:1;stroke-linejoin:miter"><path d="M306.30136,844.7352L306.30136,844.7355L306.30136,844.7356L306.30136,844.7355L306.30136,844.7352L306.30136,844.7355L306.30136,844.7356Q306.30136,844.7355,306.30136,844.7352"/></g><g style="fill:#fff;fill-opacity:.5137255;stroke-linejoin:miter"><path d="M514.07623,722.7114C514.0784,722.7108,514.08026,722.71045,514.08136,722.7102L514.08356,722.71094C514.08356,722.7101,514.08234,722.7107,514.0798,722.71094 Z M443.19708,731.2177C443.19592,731.20734,443.19556,731.1889,443.19733,731.16473L443.2011,731.1651C443.20245,731.19025,443.20245,731.20734,443.20166,731.217 Z M515.4134,716.47363L515.41345,716.47473C515.40924,716.4713,515.403,716.4668,515.39557,716.4608L515.3985,716.4612C515.40784,716.4663,515.41376,716.4707,515.41693,716.4734 Z M442.5381,811.2289C444.20294,810.9264,445.7959,810.5276,446.84943,810.09094L446.84912,810.09204C452.49457,807.7534,456.711,803.0503,457.98615,797.5875C458.8869,793.81274,458.26355,788.6437,456.37213,783.7986L456.37152,783.79724C456.16235,783.2671,456.0199,782.8872,455.92743,782.61914C463.37463,784.44336,467.86542,784.7761,473.1905,783.8854C473.2481,783.87573,473.33148,783.86145,473.39014,783.8512L473.3896,783.8522C479.70178,782.76733,484.3576,779.8783,487.9438,774.7792L487.9439,774.7788C489.42603,772.66895,491.7176,767.48627,492.3369,764.79095L492.77118,762.97675C492.8145,762.7956,492.76093,762.6174,492.63226,762.51605L491.0332,761.25433L491.03326,761.2552C488.51715,759.1976,486.51904,755.9389,485.6214,752.45856L485.6214,752.4598C485.44403,751.7214,485.2674,749.8769,485.2232,748.408L485.2232,748.409L485.18848,745.6663C485.1864,745.50507,485.10748,745.3659,484.97803,745.2957L484.07062,744.8034L484.0708,744.8044C482.58612,743.9637,479.20453,740.9401,478.0473,739.43475C470.26404,729.23517,472.67206,714.74915,482.63507,706.1155C484.04626,704.8926,485.60858,703.7883,487.315,702.83154C489.34082,701.70105,492.59027,700.35657,494.4118,699.9164L494.42102,699.9142C495.62793,699.5953,496.1388,699.43207,496.32098,698.42035L496.32098,698.4213C497.162,694.1446,498.23724,691.23816,500.24213,687.89233C502.52704,684.1163,506.57776,680.0799,510.37256,677.862L510.37274,677.8628L510.37598,677.86005C510.8687,677.56934,511.30127,677.32935,511.57928,677.18304C512.0512,678.3082,513.4268,681.8861,513.74817,682.8199L513.7518,682.82043C513.57214,682.98145,513.21277,683.2569,512.75104,683.5443L512.7433,683.54926C504.6452,688.8101,500.41998,698.53815,502.98944,706.56067L502.9895,706.56165C504.5089,711.3656,508.72894,714.8949,514.2533,716.1185L514.25916,716.1199C514.6752,716.20544,515.0181,716.3081,515.2194,716.3821L515.22296,716.3827C515.03217,717.5421,514.18854,721.6365,513.90326,722.71716L513.8997,722.7184C512.8436,722.677,509.08282,721.66113,507.27368,720.83276L507.27368,720.83386C502.497,718.57983,498.48077,713.6692,496.89685,708.0299L496.89545,708.0249L496.419,706.3999C496.3606,706.20105,496.1809,706.0841,495.98376,706.1073C495.96155,706.11,495.9394,706.11426,495.91705,706.12036L494.90826,706.3993L494.90686,706.40015C492.70703,707.01404,490.669,707.9662,488.3604,709.4083L488.36047,709.4093C486.40576,710.6063,485.52808,711.3889,484.0263,713.1394L484.0235,713.1427C480.83923,716.91345,479.51447,720.75,479.83807,725.287L479.83807,725.2887C480.31854,731.7281,484.84656,737.6473,491.38654,740.59625L492.41107,741.06305L492.16058,742.5903L492.16058,742.5915C491.70044,745.27057,491.80408,749.4664,492.35968,751.6132C493.00256,754.12213,494.62103,756.3077,496.52966,757.2226L496.5321,757.2238C498.41827,758.111,499.46063,758.23834,501.82397,757.87726C505.43176,757.3255,508.9212,755.3283,512.53235,751.84357C513.8851,750.5463,514.2697,750.2702,514.4231,750.2475L514.4265,750.24774C516.4834,751.4588,518.774,752.487,520.30273,752.85675L520.3028,752.8577C521.7971,753.22186,522.4315,753.2536,524.619,752.9213C524.8633,752.8842,525.136,752.84125,525.4237,752.79486L525.42004,752.79645C528.2296,752.36847,528.8502,752.1955,530.3432,751.3337L530.34314,751.3348C533.99786,749.2531,537.1657,745.9471,539.377,741.8964L539.377,741.8973C546.13275,729.5496,544.4259,714.43994,535.1996,703.931L535.1985,703.9298C534.54,703.1863,534.1948,702.671,534.10376,702.44653L534.10706,702.447C534.3065,702.1267,534.8403,701.3085,535.4332,700.4734L535.4347,700.47144C538.20483,696.52954,540.7016,691.4103,542.00574,687.05237L542.006,687.05194C546.7031,671.3032,540.8764,656.1935,528.6002,652.5703L528.60016,652.57117C528.34515,652.495,528.0868,652.4244,527.826,652.3592L527.8245,652.3588C526.47675,652.0271,524.2933,651.99176,522.18756,652.16516C520.2765,652.32275,518.36145,652.6573,517.13495,653.137L517.1311,653.1385C512.79016,654.8832,508.39984,657.9725,504.92487,661.7475L503.2235,663.5838L502.02325,663.2543L502.0196,663.25323C498.0072,662.13794,495.99512,661.8784,492.2292,662.07294L492.23035,662.07355C491.27307,662.11633,490.5279,662.15796,489.90338,662.2125C488.4203,662.3421,487.62653,662.5447,486.31433,663.0044L486.3133,663.0047C480.71368,664.9808,476.98602,668.61194,474.48688,674.4912L474.48694,674.4922C472.70288,678.6655,472.336,681.0233,472.4145,687.5194C472.4464,690.1635,472.4239,691.725,472.36224,692.4086L472.3581,692.41003C470.38208,691.9899,466.95306,692.0105,463.8567,692.33765C461.73505,692.56213,459.7069,692.9367,458.3612,693.44366C451.52277,696.0195,446.2462,701.34753,443.4786,708.4469L443.47787,708.4487C441.18524,714.39197,440.89093,722.3252,442.72443,729.16376L442.72473,729.16437C442.92578,729.9085,443.0796,730.53375,443.15338,730.8864L443.15802,730.88666C442.78784,731.0843,442.12946,731.43134,441.39557,731.8018L441.39026,731.8045C431.65637,736.85547,424.2425,744.7184,419.45428,755.2085C410.06653,775.77313,414.3993,802.7659,428.43817,809.6646L428.43817,809.66547C430.82617,810.84406,432.5376,811.3437,435.67236,811.7447L435.6726,811.7458C437.1914,811.94934,440.0138,811.6876,442.5381,811.2289 Z"/></g><g style="fill:#fff;fill-opacity:.5137255;stroke-linejoin:miter"><path d="M517.37274,926.66144C519.1325,926.186,520.89703,925.5258,522.2253,924.79L522.2263,924.78925C528.813,921.11993,534.3975,913.9825,537.8273,905.02924L537.82764,905.0284C543.30554,890.6855,541.6429,875.32184,533.4168,863.86566L533.41113,863.8577L533.4112,863.8587C532.7632,862.96747,532.24054,862.1949,532.0341,861.86017L532.0375,861.86066C532.24066,861.49664,532.713,860.7137,533.2807,859.81195L533.2808,859.8117C537.0851,853.76373,539.5314,847.53033,540.6262,841.07477L540.6262,841.0743C541.298,837.10406,541.209,831.3239,540.4204,827.664C538.8468,820.3609,535.2115,814.3403,529.4066,809.44226L529.4067,809.44324L527.74927,808.0277L529.8866,805.2362L529.8873,805.2352C534.8115,798.77734,537.9764,791.9818,539.5843,784.40894C540.49,780.22644,540.66907,777.69226,540.4529,773.04175L540.4528,773.0414C540.1669,767.04,539.1082,763.07074,536.5093,758.1442L536.50854,758.1429C535.79663,756.8062,535.3887,756.0633,534.88525,755.93756L534.8852,755.93744C534.8086,755.9183,534.73193,755.9122,534.6532,755.918L534.65344,755.91925C534.6324,755.91974,534.6095,755.9224,534.5886,755.9256C534.51715,755.9367,534.4496,755.9566,534.3882,755.9798L534.39,755.9803C534.0686,756.08795,532.88074,756.6524,531.7745,757.1844L531.7745,757.18524C529.5393,758.25287,527.14734,758.987,524.77856,759.35736C521.8805,759.8106,519.0262,759.71783,516.5437,759.03876L516.5411,759.0379L515.0275,758.63617C514.9755,758.6225,514.9208,758.61993,514.8666,758.6285C514.7954,758.63947,514.72473,758.6691,514.6609,758.71564L512.82086,760.0629L512.81665,760.0661C510.5213,761.78217,508.07043,763.0794,505.56024,763.8654L505.56024,763.8663C504.8083,764.10004,503.78876,764.3178,502.77582,764.47723C501.28778,764.71173,499.94897,764.7979,499.50415,764.685L499.50098,764.684C499.49475,764.6828,499.48218,764.6799,499.47522,764.6783L499.47382,764.6779C499.40002,764.6624,499.31482,764.6558,499.2204,764.6706C499.02533,764.70135,498.86157,764.8118,498.73444,764.9555L498.73444,764.9565C498.44128,765.2874,498.2348,765.9538,497.98267,766.884L497.98267,766.88495C494.35516,779.6969,484.94855,788.7709,473.0127,790.82214C472.98383,790.82715,472.97766,790.82837,472.94885,790.83325L472.95038,790.834C471.17456,791.11096,470.2752,791.1864,466.22076,791.30664L466.2212,791.30774L464.85187,791.32263C464.828,791.3229,464.80426,791.3252,464.78046,791.3291C464.669,791.34814,464.56073,791.40796,464.4759,791.499C464.373,791.6095,464.3147,791.75476,464.3164,791.8971L464.33228,793.27075C464.36255,795.8788,463.45038,800.06714,462.2104,802.9304L462.2104,802.9313L461.58752,804.33923C461.5193,804.4939,461.52246,804.66223,461.59607,804.79016C461.66962,804.9182,461.8045,804.98987,461.95728,804.98206L463.2337,804.91797L463.23358,804.91895C468.63324,804.7051,474.78845,806.4321,478.21497,809.0897L478.21753,809.0917L479.40106,809.99304C479.49042,810.06104,479.60205,810.08203,479.71295,810.0615C479.83234,810.0393,479.951,809.9691,480.03973,809.8563L481.6258,807.8441L481.62585,807.845C485.492,803.00806,490.52332,799.87744,495.6955,798.94666C496.8955,798.73035,498.10223,798.6328,499.30603,798.65955L499.30615,798.6605C501.39038,798.7057,503.99493,799.2388,505.51154,799.9227L505.51544,799.92456C506.05762,800.1615,506.62256,800.3583,506.83136,800.38965L506.83197,800.39C506.847,800.3921,506.91827,800.4043,507.0017,800.38916C507.2154,800.3502,507.36078,800.15186,507.35822,800.15234L507.3579,800.15344C507.56226,799.8967,508.04468,799.02356,508.50507,798.08923L508.5074,798.08435C510.58105,793.7761,514.04486,789.574,517.44745,787.1057L517.4476,787.10657L518.68866,786.2147L518.73334,786.3208L518.73334,786.3218C518.868,786.65967,519.42706,788.0398,520.0081,789.43555L520.00824,789.4364L520.01135,789.443C520.4368,790.44617,520.7877,791.3303,520.947,791.7522L520.9505,791.75256C520.7303,791.9501,520.32965,792.2831,519.8287,792.67993L519.82336,792.6841C519.0247,793.3324,517.5119,794.93555,516.4744,796.28503L516.4744,796.2859C514.9315,798.2529,514.3459,799.2832,513.46094,801.4938L513.461,801.4946C512.1114,804.8489,511.5844,807.5569,511.62927,810.7793C511.70105,815.92755,513.37445,819.6807,516.92505,822.7509L518.84454,824.4108L517.26166,827.284L517.2615,827.285C516.4971,828.654,515.8152,829.8217,515.506,830.31537L515.5025,830.31696C514.7138,829.95294,512.288,828.16656,511.2202,826.97675L511.21948,826.976C507.44495,822.7966,505.60016,817.75604,505.51172,811.2704L505.4671,808.00256C505.4651,807.85034,505.39484,807.72034,505.27844,807.65234L504.44128,807.1642L504.44147,807.16504C503.06195,806.30286,500.47314,805.5232,498.7226,805.40283L498.72076,805.40247C497.66803,805.33484,496.628,805.39514,495.60596,805.58374C492.05237,806.2394,488.766,808.43164,485.94196,812.02893L485.94104,812.0299C484.87238,813.3977,484.1729,814.4045,484.07355,814.9677L484.0736,814.96796C484.05536,815.071,484.04822,815.19794,484.08392,815.3233L484.0916,815.3476C484.17438,815.5839,484.60315,816.7553,485.0581,817.95013C486.39325,821.5577,486.69452,825.8785,485.87103,829.33246L485.8717,829.33344C485.64258,830.1351,486.07306,830.4897,486.6518,830.7498L486.66034,830.7536C488.03894,831.33014,490.77405,833.6308,491.94702,835.2486L491.94873,835.25104C495.7611,840.4251,496.48602,848.8641,493.7257,856.9135L493.7245,856.91705L493.13226,858.68024C493.08167,858.83075,493.09503,858.98505,493.16852,859.09796C493.24188,859.21063,493.3672,859.26935,493.50732,859.2568L494.55646,859.16144L494.55658,859.1623C498.32642,858.81793,499.71582,858.77826,501.55426,859.0069L501.55792,859.00714C510.06287,859.97833,515.4947,865.3586,517.1115,874.31537L517.11145,874.31573C517.3548,875.65753,517.5425,877.1066,517.54865,877.54205C517.56494,878.696,517.96954,878.7818,519.3697,879.0053L519.3697,879.0064C523.46625,879.6951,527.81195,883.1503,529.8144,887.30743C530.3762,888.4832,530.86615,889.92487,530.9913,890.52997L530.9945,890.5302C530.0255,891.0701,526.7728,892.7828,525.6476,893.3138L525.64636,893.3144C525.4973,893.3852,525.412,893.42194,525.3574,893.43976L525.354,893.44147C525.3076,893.36005,525.2385,893.1528,525.08765,892.61664L525.0878,892.6175C524.295,889.6491,521.6756,886.8665,518.8366,885.94354L518.83563,885.9428C516.77496,885.2797,514.51337,885.26215,512.2088,885.8184C507.94098,886.8483,503.5282,889.8444,499.9536,894.3498L499.95374,894.35077L499.01263,895.5191L497.2353,894.3764L497.2337,894.3754L497.23358,894.3764L497.23346,894.3752L497.23346,894.3764C496.07178,893.6225,494.90216,892.779,494.5857,892.49725L494.58063,892.4932L494.3047,892.257L495.8183,890.34186L495.8183,890.34283C497.92377,887.6878,499.7992,885.82404,502.55188,883.7205L502.55432,883.7188C504.65216,882.0983,508.59027,879.97833,510.05023,879.63275C510.3745,879.55585,510.7724,879.4539,511.06024,879.1728L511.06036,879.1739C511.16443,879.0711,511.25055,878.951,511.31494,878.8138L511.315,878.81476C511.4254,878.57794,511.45404,878.3299,511.4508,878.0949L511.4508,878.09564C511.44293,877.5307,511.23584,876.6899,510.90045,875.43524C509.57385,870.34564,506.71198,867.01105,502.63843,865.8621L502.6375,865.8619C499.68976,865.03925,498.2859,865.03265,494.4975,865.8848C494.33832,865.9207,494.14948,865.96405,493.98065,866.003L493.98248,866.0035L493.97858,866.0036C490.98254,866.70526,489.89276,867.0898,487.7943,868.14923L487.7942,868.1503C478.25,872.97516,470.06708,881.59247,466.4151,890.7331L466.414,890.7358C465.06494,894.1557,464.62378,896.5048,464.66315,899.90936C464.70563,903.5767,465.22894,905.55585,466.9464,908.75446L466.94916,908.75934C468.00623,910.66,468.68347,911.451,470.3537,912.7636L470.3551,912.7646C473.66663,915.3394,477.15594,916.1092,481.6396,915.21747L481.63934,915.21857L481.64545,915.21625C482.12805,915.1192,482.56,915.0241,482.97827,914.91693C484.79224,914.45245,486.16766,913.80206,489.04297,912.1485L489.05634,912.1402C489.0984,912.1147,489.12085,912.1069,489.12988,912.10455C489.12885,912.1049,489.12903,912.1049,489.13043,912.10455C489.14288,912.10126,489.2544,912.0982,489.52832,912.5168L489.5302,912.5197C492.0619,916.3129,499.11493,922.7817,503.04083,924.8648L503.0409,924.86566C505.76624,926.34906,509.72632,927.41064,512.4352,927.4315L512.43616,927.43164C513.81366,927.43835,515.60895,927.1381,517.37274,926.66144 Z"/></g><g style="fill:#fff;fill-opacity:.5137255;stroke-linejoin:miter"><path d="M475.57086,836.32904C475.56964,836.3289,475.56836,836.32855,475.5672,836.3284L475.56696,836.3293C475.56744,836.3276,475.56793,836.3266,475.5683,836.326L475.5683,836.32684C475.57056,836.3266,475.5728,836.32733,475.57507,836.32806 Z M458.58093,893.49615C458.8637,893.4289,459.03632,893.0911,459.03607,893.0745L459.02856,893.0772C459.1985,892.7028,459.79688,891.2236,460.47186,889.5241L460.4723,889.52313C462.4298,884.5688,464.5462,880.8156,467.57294,876.8875L467.57312,876.8885C471.33032,872.0191,476.89362,867.0839,482.226,863.91364L482.2353,863.90826C483.7287,862.99945,484.35272,862.4023,485.5418,860.7492L485.54187,860.75006C488.29907,856.9798,489.71875,852.09235,489.3709,847.7061L489.3709,847.7054C489.0569,843.8046,487.82477,840.9299,485.44635,838.6855L485.44562,838.6849C483.2115,836.5877,479.59174,835.591,476.37976,836.2415C476.27637,836.2625,476.18018,836.27924,476.09277,836.2924L476.09686,836.2924C476.22498,836.0871,476.38483,835.8431,476.56635,835.58185L476.5669,835.5811C477.71924,833.91864,479.16998,830.66046,479.70776,828.5522L479.70776,828.55304C480.58997,825.1198,479.94464,821.1623,478.14905,818.62994C476.13794,815.75165,472.13495,813.4585,467.83698,812.63794L467.83698,812.63904C464.58984,812.00085,461.7635,811.9053,458.7021,812.4702C456.11005,812.9486,453.3672,813.89655,450.07166,815.3659L450.07068,815.3665C446.75952,816.85077,443.87622,817.8134,441.22815,818.3067C439.99768,818.5356,438.8192,818.66364,437.6703,818.69476L437.66687,818.69464C434.1933,818.81445,432.21747,818.54944,428.6081,817.5126L428.6081,817.5134L425.9566,816.7296C425.88843,816.7097,425.81616,816.70715,425.74463,816.7202C425.60443,816.746,425.46747,816.83167,425.3722,816.9617L424.6551,817.9425L424.65076,817.9485C423.41248,819.6836,421.65698,823.5027,420.90857,825.92444L420.90674,825.92993C417.94922,835.8546,420.70148,845.60974,428.18616,851.8722L428.18622,851.87317C433.19604,856.06213,439.15143,857.779,445.4959,856.8663L445.4994,856.8658C446.1855,856.762,446.79004,856.68805,447.22186,856.64484L447.2265,856.6447C447.06158,856.9084,446.8556,857.2336,446.62854,857.5872L446.62866,857.5882C443.91858,861.742,442.07642,866.4611,441.15454,871.4921C440.49097,875.0612,440.6275,880.52924,441.42108,883.22955L441.4215,883.231C443.55286,890.3829,448.99402,894.0212,456.8808,893.585L456.88092,893.58575C457.75555,893.54205,458.48804,893.5086,458.49408,893.50836L458.58093,893.49615 Z"/></g><g style="fill:#fff;fill-opacity:.5058824;stroke-linejoin:miter"><path d="M615.4126,879.9534C615.41095,879.9537,615.41425,879.95197,615.4242,879.9483L615.42444,879.94904C615.425,879.94794,615.4269,879.9471,615.4308,879.9461C615.42334,879.94977,615.4178,879.9521,615.41473,879.9528 Z M577.8118,878.85126C577.8083,878.8509,577.80524,878.8503,577.8023,878.8497L577.8023,878.8505C577.74084,878.83954,577.72205,878.8311,577.72925,878.8294C577.73663,878.8276,577.77094,878.8326,577.8145,878.8505 Z M610.5741,864.0391C610.5741,864.0391,610.5741,864.0391,610.5741,864.0391L610.5741,864.04 Z M590.619,906.85284C594.5409,905.7933,598.7339,903.117,602.5359,899.22406C606.0741,895.6053,610.2744,889.60016,613.5194,883.61053L613.521,883.60736L613.5226,883.60443L613.523,883.60394C614.4442,881.8736,615.2555,880.38654,615.5149,879.9294C615.7422,879.89557,616.21106,879.8918,616.7396,879.9488L616.7396,879.95C618.0034,880.08673,619.7376,879.8835,621.3325,879.47516C622.3574,879.2126,623.3455,878.86005,624.1308,878.4433L624.13306,878.4421C626.7684,877.024,628.6693,875.2247,630.69543,872.2725C632.6718,869.393,633.6741,867.1479,634.468,863.71246L634.4686,863.71C634.8507,862.02313,634.9175,861.09247,634.86646,858.5368C634.777,854.06006,633.9613,851.5497,631.48846,848.0376L631.48834,848.0382C630.21686,846.2307,627.2216,843.5432,625.16516,842.32825L625.1642,842.32764C620.5863,839.6445,614.7799,838.7155,609.82306,839.8306C609.48224,839.90717,609.1477,839.99286,608.81525,840.08905L608.81506,840.0899C602.44147,841.9366,598.11597,846.69916,596.2608,853.9543L596.2601,853.9566C595.9292,855.2723,595.59424,856.92365,595.5316,857.6287L595.5318,857.6297L595.3975,858.8295C595.3834,858.9556,595.414,859.07294,595.48224,859.1546C595.5505,859.23615,595.65015,859.27496,595.758,859.26166L597.35724,859.0606L597.3603,859.06036C599.0307,858.836,602.06537,859.16034,603.892,859.7906L603.89404,859.7912C606.0709,860.5253,609.78046,862.83966,610.4623,863.87787L610.46716,863.8851L610.4672,863.8851C610.53406,863.98114,610.5592,864.0284,610.56866,864.05145L610.571,864.0518C610.5425,864.14545,610.3987,864.37396,609.8311,865.1231L609.8236,865.133C609.2772,865.887,608.32166,867.1226,607.68494,867.90314L607.6819,867.9073L606.7778,869.03546L605.6754,868.1796C602.5302,865.7181,598.66,864.9517,594.9749,865.8411C592.5698,866.4216,590.24176,867.7082,588.2559,869.6912L588.2533,869.69415L588.25244,869.6951L588.2477,869.69977C587.5391,870.4349,586.6445,871.4445,586.28204,871.98285L586.2809,871.98444C585.35657,873.3658,584.10944,876.24725,583.69116,877.95087C583.52435,878.628,583.43286,878.8758,583.38275,878.9632L583.3801,878.96466C583.37103,878.96466,583.3593,878.9649,583.34503,878.96454L583.3357,878.96454C581.90765,878.9797,579.0641,878.9185,578.10645,878.8714L578.1092,878.8719C578.29987,877.98004,578.92834,875.7775,579.3492,874.68256C581.2103,869.8936,584.0965,865.9371,587.8487,863.0629L587.8487,863.06366L589.73663,861.6174C589.8647,861.5192,589.94977,861.3581,589.96,861.1943L590.065,859.51056C590.2409,856.962,591.0772,852.84344,591.8676,850.6519L591.8676,850.65265C592.91364,847.793,594.05334,845.69794,595.8692,843.2695C599.0944,838.9781,603.06525,836.08575,608.2035,834.2806L608.2053,834.27985C609.1907,833.9284,610.1018,833.5854,610.3185,833.46246L610.3187,833.46344C610.3268,833.4587,610.43134,833.4025,610.50903,833.2944L610.5099,833.29486C610.66833,833.0776,610.62585,832.82025,610.6244,832.8205L610.6244,832.82135C610.59406,832.55255,610.40454,832.05524,610.2102,831.61115L610.2098,831.61005C608.9887,828.8443,608.2738,824.08453,608.5256,820.363L608.5257,820.3621C608.89136,814.78546,611.0515,809.5842,614.4616,805.93335L614.4617,805.9342L615.8778,804.43066C615.99554,804.3054,616.0504,804.1216,616.01807,803.9595L615.8273,803.00195L615.8274,803.0028C615.7389,802.50525,615.61804,800.6864,615.584,798.90674C615.5207,795.58777,615.8801,793.3779,616.8127,790.9656L616.81274,790.96643L617.219,789.9806C617.29535,789.79565,617.2653,789.5908,617.14514,789.47546L615.325,787.7324L615.32324,787.73083C612.75684,785.30725,610.176,784.42786,607.02106,785.00977C604.70984,785.43604,601.9229,787.0397,599.7298,789.1964L599.7267,789.1998L598.70844,790.2195C598.5951,790.333,598.5351,790.5,598.55145,790.65674L598.7386,792.4557C599.2139,797.2294,597.8561,803.4336,595.2438,808.4429C594.04755,810.7047,591.26294,814.40106,590.42957,815.1088L590.4271,815.1104C590.31006,814.94635,590.1212,814.6794,589.8777,814.3348C589.56396,813.8908,589.1851,813.3546,588.76184,812.7612L587.20996,810.5835L587.6398,810.1222L587.64136,810.1205C591.87964,805.5309,594.0497,798.9332,593.259,793.1135L593.25824,793.10864C592.8964,790.6305,592.0791,788.0492,591.03656,786.23816L591.03595,786.23755C589.9421,784.34985,587.3874,781.91895,585.55695,781.06506L585.5572,781.0658C585.01685,780.792,584.6012,780.5487,584.39404,780.4042L584.3966,780.40454C584.5784,779.8479,584.9741,778.61084,585.4131,777.23816L585.4131,777.23914L586.30896,774.47314L586.744,774.61414L586.744,774.6151C590.21484,775.7593,593.8152,778.8843,595.86176,782.5178L595.8619,782.51855C596.19354,783.1222,596.5478,783.6815,596.6964,783.8452L596.6954,783.8463C596.69073,783.8462,596.83014,784.0082,597.0297,783.9717C597.10834,783.9574,597.17664,783.9158,597.18,783.91406L597.18024,783.91406C597.37634,783.8036,598.17084,783.2101,599.0348,782.5542L599.03577,782.55347C601.78064,780.4584,603.5482,779.65393,606.8011,779.068C608.83185,778.7023,609.96124,778.6239,610.93195,778.75635L610.9324,778.75696C613.86066,779.152,617.25195,780.82654,619.213,782.87756L620.10913,783.8259C620.1854,783.90674,620.28864,783.93604,620.3918,783.917C620.4754,783.9015,620.5589,783.8539,620.6275,783.77576L622.2571,781.9169L622.25806,781.9159C624.9949,778.7755,628.6335,776.1985,632.4652,774.6842L632.4654,774.6852L632.4671,774.68384C633.39136,774.3175,634.2589,773.93176,634.4586,773.8053L634.4588,773.806L634.459,773.80676C634.46454,773.802,634.548,773.7521,634.61206,773.6636C634.8098,773.39075,634.6939,773.09546,634.68256,773.0641C634.6359,772.93604,634.5556,772.8124,634.46576,772.7091L634.4659,772.7097C633.77045,771.8507,632.60925,767.7817,632.3446,764.96063L632.3445,764.95856L632.16,763.0815C632.1483,762.9632,632.0944,762.8619,632.0112,762.8022C631.9444,762.75433,631.8639,762.73676,631.7822,762.7507C631.76184,762.7541,631.7416,762.7596,631.7212,762.7669L630.9702,763.04266L630.9702,763.0435C628.99475,763.7675,627.0926,764.28827,625.31537,764.59357C623.61993,764.88495,622.04395,764.9788,620.6378,764.86725L620.6361,764.867C612.9934,764.30084,607.2569,759.3907,604.2154,750.7236L604.2151,750.7231C603.7842,749.50104,603.49915,748.76166,603.12866,748.5411C603.0095,748.47015,602.8778,748.4445,602.73987,748.46625C602.70917,748.4711,602.6801,748.47784,602.6518,748.48615L602.65173,748.4864L602.6471,748.4876L602.64233,748.4892C601.62805,748.80365,600.6382,749.0372,599.67505,749.18866C596.35706,749.7111,593.3325,749.2695,590.5653,747.8558L590.5653,747.85675C589.7953,747.45844,589.3375,747.22833,588.8845,747.29865C588.63904,747.3366,588.4215,747.45575,588.20593,747.586L588.2007,747.5888C585.6262,749.1899,582.60925,750.3322,579.80975,750.76996C579.08545,750.8831,578.38,750.9489,577.69904,750.9638L577.69556,750.9639C575.4708,751.0345,572.6794,750.7381,571.3484,750.32965L571.34485,750.32855L570.6085,750.11115C570.55835,750.09625,570.5066,750.0933,570.45557,750.10126C570.31213,750.1235,570.17566,750.23016,570.1046,750.38885L569.2215,752.36237C567.93774,755.1889,566.7904,758.9191,566.12634,762.41864L566.1259,762.4218C565.63025,765.1137,565.5746,765.98236,565.64514,770.2217C565.7101,774.124,565.8248,775.4525,566.2844,777.55066C568.0523,785.6968,571.7197,792.1885,577.27844,797.0718L577.2794,797.07275L578.6986,798.3098L577.4242,799.91174L577.4242,799.9126C574.3507,803.7634,571.42554,808.8694,569.72925,813.3733C564.4929,827.15607,566.6649,841.1888,575.42535,850.6917L576.37195,851.73285L575.33856,853.7696C573.62805,857.11444,571.4312,863.01373,570.51227,866.7126L570.5113,866.7164C570.0961,868.4389,569.5399,871.3897,569.29083,873.28424L569.2901,873.2889C568.919,876.31915,568.8674,877.4266,569.05707,881.81036C569.21954,885.96515,569.3824,887.309,569.89087,889.4825L569.8917,889.4859C571.5486,896.32196,574.22375,901.028,578.2535,904.2056L578.2539,904.2061C581.1986,906.5179,583.87805,907.4699,587.3395,907.35516L587.33954,907.3558C588.4004,907.3261,589.49866,907.1556,590.619,906.85284 Z"/></g><g style="fill:#fff;fill-opacity:.50980395;stroke-linejoin:miter"><path d="M639.64014,850.40173L639.7292,850.3672C639.7912,850.3341,640.10614,850.188,640.4495,850.0586L640.4585,850.0547C641.94965,849.4474,643.75275,848.34106,645.3929,847.00525C646.82166,845.8595,647.5015,845.07874,648.72614,843.27185L648.7261,843.2727C651.0854,839.8139,652.1752,836.4959,652.49817,831.95734L652.4982,831.95807C652.9347,825.8846,651.0027,819.0954,647.75635,815.12775L647.75354,815.1243C647.4793,814.79865,647.23895,814.4963,647.0607,814.2636L647.0625,814.26385C647.38477,814.1589,647.8304,814.0235,648.3324,813.8813L648.3329,813.88214C650.7909,813.18677,652.4962,812.30164,654.8451,810.475L654.8451,810.47595C659.3537,806.9751,662.4875,802.546,664.608,796.694L664.60864,796.69214C666.1047,792.5231,666.4542,790.5222,666.3813,786.20874L666.38135,786.2096C666.3381,783.2799,666.23895,782.41516,665.8121,780.8606L665.8121,780.8612C665.2783,778.8817,664.14655,776.37024,663.10785,774.84644L663.1067,774.8447C662.75073,774.329,662.4052,773.8285,662.32495,773.7041L662.3249,773.7041C662.1996,773.51025,661.9949,773.53845,661.9395,773.547L661.94037,773.5476C661.9322,773.5481,661.9292,773.54846,661.921,773.55005C661.5867,773.6113,660.9093,774.041,660.16846,774.5968L660.16846,774.5978C656.5624,777.2389,653.7567,778.5619,650.3607,779.1937C648.07214,779.61975,646.7466,779.65576,642.37256,779.3512L642.3708,779.3511C640.24384,779.21606,638.41034,779.2761,636.7073,779.59033C633.80005,780.1266,631.3067,781.39844,628.4065,783.64404L628.40656,783.645C624.9333,786.3179,622.5125,789.3779,621.2486,792.7235L621.2485,792.7245L621.24744,792.72644C620.58466,794.4946,620.54333,794.7998,620.5941,797.4302C620.6416,799.88196,620.71875,800.4032,621.3305,801.86755C621.70276,802.7698,622.5365,804.24084,623.18585,805.1465L623.19214,805.15515L623.1931,805.15625L623.1931,805.1571C623.53827,805.62,623.83545,806.03406,624.0395,806.32983L624.0417,806.3303C623.9546,806.35046,623.85803,806.3723,623.7538,806.39343C619.0943,807.33716,614.8858,812.57837,613.77905,818.7336C613.4321,820.6243,613.49927,824.1547,613.9149,825.9073L613.9153,825.90924C614.4011,827.9213,615.6884,830.404,616.9441,831.7316L616.94476,831.73224C617.8953,832.7319,618.40625,833.0031,619.9619,833.37616L619.96606,833.37714C622.8908,834.034,626.96454,835.6612,628.8882,836.90717L628.89026,836.9085C631.1542,838.3476,633.94147,841.034,635.41125,843.21545L635.41394,843.2196C636.04803,844.1317,637.128,846.1012,637.84686,847.59985L637.84784,847.60205C638.4847,848.90955,639.1038,850.0569,639.31757,850.29004L639.3172,850.29114C639.31464,850.2909,639.44354,850.44836,639.64014,850.40173 Z"/></g><g style="fill:#fff;fill-opacity:.50980395;stroke-linejoin:miter"><path d="M638.78955,752.169C638.7789,752.1568,638.7694,752.1442,638.76117,752.1314L638.7611,752.13214L638.79144,752.1685 Z M587.44916,675.14435C587.4487,675.1439,587.4483,675.1437,587.4479,675.1433L587.4475,675.14294C587.42834,675.1277,587.4206,675.1196,587.4206,675.1183L587.4215,675.11884C587.42474,675.11926,587.4364,675.1282,587.45166,675.1441 Z M589.28,669.5248C589.2748,669.525,589.27625,669.5239,589.28656,669.5228C589.2884,669.5228,589.29016,669.5227,589.29224,669.5225L589.29474,669.5233C589.2897,669.5235,589.2855,669.5242,589.2826,669.5245 Z M649.7152,773.84485C650.6257,773.6791,651.5256,773.4464,652.23627,773.1741L652.23627,773.1748C657.1255,771.3003,661.86304,766.43304,664.76636,760.40814L664.76764,760.40533C666.64856,756.4465,667.844,752.1148,668.4561,747.04144L668.4562,747.04034C668.88116,743.4526,668.77185,736.658,668.2447,732.6696L668.2445,732.6674C666.2904,718.3725,659.8059,708.9539,649.22284,705.26886L649.21814,705.2673L649.2141,705.26605L649.21405,705.2668C648.26495,704.9495,647.3208,704.64825,646.8905,704.56146L646.89215,704.5621C646.9966,704.1313,647.19836,703.0401,647.39,701.96686L647.3903,701.96564C647.72833,700.0472,647.76556,698.9209,647.7043,694.9919L647.70416,694.9892C647.617,690.7975,647.54126,690.06274,647.06104,688.239C646.4084,685.75903,645.3819,683.33746,644.2342,681.5746L644.2343,681.57556C643.35754,680.18524,641.2281,677.95905,639.96045,677.08215L639.96045,677.0829C638.68475,676.19995,636.3081,675.2308,634.52606,674.855L634.52466,674.8546C633.2687,674.59595,631.4352,674.60187,629.5844,674.79755C627.7547,674.9909,625.8732,675.3731,624.46704,675.89374L624.46265,675.89545C623.8913,676.11554,623.3781,676.2997,623.03143,676.4212L623.0294,676.4221C623.0462,675.95984,623.08276,675.2233,623.14136,674.3817L623.1416,674.37695C623.4481,669.2616,622.5767,664.0122,620.7531,660.04333L620.7526,660.0422C618.7531,655.7252,615.02576,652.7283,610.74646,651.9991L610.74164,651.9983C609.79614,651.8519,609.0191,651.8137,607.76715,651.923C607.23236,651.9698,606.60535,652.04395,605.8454,652.1472L605.84674,652.148C602.5831,652.55695,600.44366,653.2471,597.50635,654.78314L596.5521,655.2713L595.2575,654.10077L595.2577,654.10175C591.37036,650.5564,587.67175,648.5155,583.5333,647.6414L583.53357,647.64233C582.3843,647.3968,581.06665,647.3805,578.974,647.55286L578.9767,647.55347C578.8716,647.56036,578.75903,647.5693,578.65735,647.57776C575.4918,647.8385,573.9386,648.354,571.29956,649.991C565.71655,653.4053,561.8405,659.2833,560.0721,667.02423C559.64453,668.8123,559.5939,669.84344,559.6639,674.111C559.71704,678.7563,559.7722,679.30853,560.428,681.7691L560.428,681.7699C561.3004,685.0772,562.68604,688.4552,564.27124,691.1418L564.2721,691.1432C565.6252,693.41486,568.3706,697.1552,569.31903,698.0267L569.3295,698.0361L569.63586,698.2966L568.4723,700.053C564.6501,705.80817,562.35925,711.5985,561.4986,717.7256L561.49817,717.72815C561.0363,721.1461,561.29236,726.86035,562.0754,729.8178L562.07544,729.81903C563.9015,736.7961,567.6172,741.7924,572.6332,743.9185C574.77234,744.8298,577.0074,745.10394,579.2432,744.7641C582.296,744.3001,585.32935,742.69574,588.10944,740.0457L589.2106,739.01215L589.5885,739.28326L589.5885,739.2841C591.3895,740.61346,594.1726,742.0981,595.73096,742.55975L595.73096,742.5606C597.37036,743.06525,597.7781,743.05634,600.21655,742.70905L600.2201,742.7094C602.6609,742.33563,603.0171,742.2316,604.24023,741.35175L604.24023,741.3526C606.36365,739.84015,607.8306,737.2094,608.3994,734.0727L608.3994,734.07367C608.72845,732.3117,608.65356,728.56793,608.26025,726.4742L608.26025,726.4749C608.1384,725.76495,608.0741,725.1303,608.0713,724.89325L608.07355,724.8936C608.22974,724.69586,608.716,724.217,609.34216,723.7138L609.3491,723.7082C610.11096,723.0704,611.4463,721.7797,612.2881,720.778L612.2882,720.7789C616.1093,716.3973,618.0902,711.52325,617.9951,706.59686C617.91864,702.6321,616.90924,700.1708,614.2888,697.51685C612.90076,696.0993,612.21,695.6352,610.47784,694.9095C608.327,693.99567,606.3635,693.51,604.842,693.55963L604.8421,693.56055L604.0405,693.5799C604.03015,693.57996,604.01953,693.5807,604.00903,693.5819C603.84564,693.60114,603.7004,693.7367,603.65015,693.9216L603.03876,696.1736L603.03845,696.17444C601.332,702.5032,598.2841,707.04144,593.5076,710.38947C592.1739,711.3243,590.1192,712.4511,588.9689,712.8664L588.9634,712.86835L588.6394,712.9908L588.31854,711.51105L588.31854,711.512C588.1375,710.64325,587.8741,709.4733,587.6938,708.67255L587.6938,708.6735C587.6624,708.5329,587.6132,708.3149,587.59064,708.2144L587.366,707.2054L587.90924,706.97186L587.9095,706.9726C588.45264,706.7424,589.5795,706.0859,590.4305,705.5566L590.4391,705.5511C597.76013,700.7517,600.4053,691.84485,596.90405,684.06134C596.85925,683.9616,596.8144,683.8643,596.7675,683.7647L596.7668,683.7632C595.10266,680.2738,592.63696,677.7838,589.0655,675.99835L589.06067,675.9961C588.4348,675.69543,587.9148,675.42084,587.64136,675.2638L587.6438,675.2644C587.9622,674.1938,589.11566,670.57007,589.46014,669.5436C589.66174,669.58344,590.00275,669.6815,590.42615,669.8464L590.4263,669.8472C596.5372,672.2645,601.7036,678.50836,603.1499,685.20605L603.15,685.2068L603.55457,687.0665C603.59296,687.2428,603.7261,687.36395,603.8876,687.3697L605.0615,687.41016L605.0635,687.41034C610.1906,687.5568,615.7094,690.217,618.7877,693.95624C620.21265,695.69727,621.99567,699.2397,622.5755,701.4758L622.5761,701.4779C623.0856,703.40295,623.34485,708.0964,623.0575,710.22394L623.05725,710.2249C622.29614,715.9417,619.63,721.4372,615.50916,725.6691L615.5093,725.66986L614.3512,726.8449C614.2565,726.9412,614.20215,727.0789,614.20483,727.217L614.2471,729.43195C614.30115,732.267,613.8874,734.60944,612.80396,737.5074C612.06323,739.4527,611.6076,740.3011,610.15826,742.2508L610.1569,742.2525L608.3609,744.6883C608.2622,744.8222,608.2311,745.0002,608.28,745.14984L609.0165,747.39386C610.2786,751.373,611.8516,753.9167,614.2552,755.9869L614.2553,755.9871C617.0811,758.4172,620.7252,759.2458,625.0129,758.52826C628.29083,757.9799,631.94244,756.5289,635.90155,754.2033L635.90814,754.1993L635.90826,754.20013C637.0122,753.5457,638.1477,752.84845,638.5762,752.53595C638.50867,752.81586,638.4146,753.1685,638.29553,753.55426L638.2916,753.56744C637.03436,758.0401,636.69635,762.97064,637.51495,766.11444L637.51495,766.1153C638.7089,770.8009,642.1219,773.80945,646.4451,774.1022L646.44507,774.10315C647.3439,774.1647,648.5542,774.056,649.7152,773.84485 Z"/></g></g></svg>